<?xml version="1.0" encoding="UTF-8" standalone="no"?>
<!DOCTYPE svg PUBLIC "-//W3C//DTD SVG 1.1//EN" "http://www.w3.org/Graphics/SVG/1.1/DTD/svg11.dtd">
<svg width="100%" height="100%" viewBox="0 0 1280 720" version="1.1" xmlns="http://www.w3.org/2000/svg" xmlns:xlink="http://www.w3.org/1999/xlink" xml:space="preserve" xmlns:serif="http://www.serif.com/" style="fill-rule:evenodd;clip-rule:evenodd;stroke-linejoin:round;stroke-miterlimit:2;">
    <g transform="matrix(2.4015,0,0,2.89157,-970.206,-569.639)">
        <rect x="404" y="197" width="533" height="249" style="fill:rgb(84,240,255);"/>
    </g>
    <g id="BILIBILI_LOGO" transform="matrix(0.9,0,0,0.9,490.005,360)">
        <g transform="matrix(1,0,0,1,-224.512,-100)">
            <clipPath id="_clip1">
                <rect x="0" y="0" width="449.023" height="200"/>
            </clipPath>
            <g clip-path="url(#_clip1)">
                <path d="M346.844,63.005C348.019,63.201 357.224,61.145 357.615,61.83C358.203,62.712 362.316,92.285 361.239,92.48C360.161,92.676 352.523,94.439 352.523,94.439C351.936,90.424 346.942,65.551 346.844,63.005M361.532,60.166L365.547,91.991C367.604,91.893 375.927,91.305 376.71,91.207C375.535,79.163 373.479,60.166 373.479,60.166C369.562,59.382 365.449,59.382 361.532,60.166M353.601,104.329C353.601,104.329 371.716,99.727 378.277,101.979C381.607,114.023 387.678,181.59 388.265,184.332C384.153,184.822 370.639,185.997 369.562,186.291C368.681,181.199 353.601,107.561 353.601,104.329M420.678,63.789C421.755,64.083 431.352,62.81 431.45,63.495C431.645,65.845 432.625,94.243 431.547,94.341C430.47,94.439 422.832,95.124 422.832,95.124C422.636,91.207 420.482,66.433 420.678,63.789M435.464,63.005L436.248,94.439C438.304,94.439 446.53,94.928 447.411,94.831C447.215,82.786 447.411,63.789 447.411,63.789C443.494,63.103 439.479,62.81 435.464,63.005M422.832,105.21C422.832,105.21 441.34,102.762 447.607,105.7C448.978,119.801 448.782,185.507 448.978,188.249C444.767,188.249 431.352,188.445 430.274,188.641C430.079,183.549 422.539,108.442 422.832,105.21M379.844,24.424C390.518,78.869 398.645,171.896 398.939,177.869C398.939,177.869 407.36,178.065 416.859,178.653C411.277,119.997 404.423,26.284 404.521,23.249C402.171,20.605 379.844,24.424 379.844,24.424M356.342,153.193C354.286,137.917 299.645,120.584 268.897,126.166C268.897,126.166 265.078,92.48 263.609,59.872C262.336,31.866 263.413,4.643 263.707,0.139C261.651,-1.33 239.52,9.246 227.573,13.652C227.573,13.652 241.87,74.169 252.25,199.706C252.25,199.706 268.799,201.469 297.197,195.985C325.595,190.501 359.182,173.365 356.342,153.193M289.559,180.709L284.761,146.142C285.936,145.555 315.411,156.522 318.544,158.481C318.054,160.635 289.559,180.709 289.559,180.709M119.27,63.005C120.446,63.201 129.65,61.145 130.042,61.83C130.63,62.712 134.742,92.285 133.665,92.48C132.588,92.676 124.95,94.439 124.95,94.439C124.362,90.424 119.368,65.551 119.27,63.005M133.959,60.166L137.974,91.991C140.03,91.893 148.354,91.305 149.137,91.207C147.864,79.163 145.906,60.166 145.906,60.166C141.989,59.382 137.876,59.382 133.959,60.166M126.027,104.329C126.027,104.329 144.143,99.727 150.704,101.979C154.033,114.023 160.104,181.59 160.692,184.332C156.579,184.822 143.066,185.997 141.989,186.291C141.107,181.199 126.027,107.561 126.027,104.329M193.105,63.789C194.182,64.083 203.778,62.81 203.876,63.495C204.072,65.845 205.051,94.243 203.974,94.341C202.897,94.439 195.259,95.124 195.259,95.124C195.063,91.207 193.007,66.433 193.105,63.789M207.891,63.005L208.674,94.439C210.731,94.439 218.956,94.928 219.838,94.831C219.642,82.786 219.838,63.789 219.838,63.789C215.921,63.103 211.906,62.908 207.891,63.005M195.259,105.21C195.259,105.21 213.766,102.762 220.033,105.7C221.404,119.801 221.208,185.507 221.404,188.249C217.194,188.249 203.778,188.445 202.701,188.641C202.603,183.549 194.965,108.442 195.259,105.21M152.271,24.424C162.944,78.869 171.072,171.896 171.366,177.869C171.366,177.869 179.787,178.065 189.286,178.653C183.704,119.997 176.849,26.284 176.947,23.151C174.597,20.605 152.271,24.424 152.271,24.424M128.769,153.193C126.713,137.917 72.071,120.584 41.324,126.166C41.324,126.166 37.505,92.48 36.036,59.872C34.763,31.866 35.84,4.643 36.134,0.139C34.077,-1.232 11.947,9.246 0,13.652C0,13.652 14.297,74.169 24.677,199.706C24.677,199.706 41.226,201.469 69.623,195.985C98.021,190.501 131.609,173.365 128.769,153.193M61.985,180.709L57.187,146.142C58.362,145.555 87.837,156.522 90.971,158.481C90.481,160.635 61.985,180.709 61.985,180.709" style="fill:white;fill-rule:nonzero;"/>
            </g>
        </g>
    </g>
    <g id="鬼畜" transform="matrix(1,0,0,1,892.055,360)">
        <g transform="matrix(1,0,0,1,-100,-100)">
            <path d="M187.148,99.902C187.148,85.43 179.531,72.793 168.105,65.645C168.34,64.102 168.477,62.539 168.477,60.938C168.477,43.047 153.965,28.535 136.074,28.535C131.484,28.535 127.129,29.492 123.184,31.211C117.305,25.176 109.082,21.406 100,21.406C90.918,21.406 82.695,25.176 76.816,31.211C72.871,29.492 68.516,28.535 63.926,28.535C46.035,28.535 31.523,43.047 31.523,60.938C31.523,62.539 31.68,64.102 31.895,65.645C20.469,72.773 12.852,85.43 12.852,99.902C12.852,113.066 19.18,124.727 28.906,132.09C28.906,132.188 28.887,132.285 28.887,132.402C28.887,157.91 49.57,178.594 75.078,178.594C84.336,178.594 92.949,175.84 100.176,171.152C107.402,175.84 116.016,178.594 125.273,178.594C150.781,178.594 171.465,157.91 171.465,132.402C171.465,132.207 171.445,132.031 171.445,131.836C180.977,124.453 187.148,112.91 187.148,99.902Z" style="fill:rgb(252,107,138);fill-rule:nonzero;"/>
            <path d="M136.074,93.34C126.973,93.34 118.77,89.57 112.891,83.535C108.945,85.254 104.59,86.211 100,86.211C95.41,86.211 91.055,85.254 87.109,83.535C81.23,89.57 73.008,93.34 63.926,93.34C63.125,93.34 62.324,93.281 61.543,93.223L61.543,129.141C61.543,148.711 77.559,164.727 97.129,164.727L104.297,164.727C123.867,164.727 139.883,148.711 139.883,129.141L139.883,93.086C138.633,93.242 137.383,93.34 136.074,93.34Z" style="fill:white;fill-rule:nonzero;"/>
            <path d="M92.305,130.176C92.305,134.129 95.558,137.383 99.512,137.383C103.465,137.383 106.719,134.129 106.719,130.176C106.719,126.222 103.465,122.969 99.512,122.969C95.558,122.969 92.305,126.222 92.305,130.176Z" style="fill:rgb(226,0,108);fill-rule:nonzero;"/>
            <path d="M126.445,109.375L121.875,109.375L121.875,104.805C121.875,103.418 120.742,102.285 119.355,102.285L118.301,102.285C116.914,102.285 115.781,103.418 115.781,104.805L115.781,109.375L111.211,109.375C109.824,109.375 108.691,110.508 108.691,111.895L108.691,112.949C108.691,114.336 109.824,115.469 111.211,115.469L115.781,115.469L115.781,120.039C115.781,121.426 116.914,122.559 118.301,122.559L119.355,122.559C120.742,122.559 121.875,121.426 121.875,120.039L121.875,115.469L126.445,115.469C127.832,115.469 128.965,114.336 128.965,112.949L128.965,111.895C128.984,110.508 127.832,109.375 126.445,109.375ZM87.832,109.375L83.262,109.375L83.262,104.805C83.262,103.418 82.129,102.285 80.742,102.285L79.688,102.285C78.301,102.285 77.168,103.418 77.168,104.805L77.168,109.375L72.598,109.375C71.211,109.375 70.078,110.508 70.078,111.895L70.078,112.949C70.078,114.336 71.211,115.469 72.598,115.469L77.168,115.469L77.168,120.039C77.168,121.426 78.301,122.559 79.688,122.559L80.742,122.559C82.129,122.559 83.262,121.426 83.262,120.039L83.262,115.469L87.832,115.469C89.219,115.469 90.352,114.336 90.352,112.949L90.352,111.895C90.352,110.508 89.219,109.375 87.832,109.375Z" style="fill:rgb(255,92,122);fill-rule:nonzero;"/>
            <path d="M118.809,130.098C117.344,130.098 116.133,131.289 116.133,132.773C116.133,140.098 108.672,146.035 99.512,146.035C90.352,146.035 82.891,140.078 82.891,132.773C82.891,131.309 81.699,130.098 80.215,130.098C78.73,130.098 77.539,131.289 77.539,132.773C77.539,143.027 87.402,151.387 99.512,151.387C111.621,151.387 121.484,143.047 121.484,132.773C121.484,131.289 120.293,130.098 118.809,130.098Z" style="fill:rgb(235,83,168);fill-rule:nonzero;"/>
        </g>
    </g>
</svg>
