<?xml version="1.0" encoding="UTF-8" standalone="no"?>
<!DOCTYPE svg PUBLIC "-//W3C//DTD SVG 1.1//EN" "http://www.w3.org/Graphics/SVG/1.1/DTD/svg11.dtd">
<svg width="100%" height="100%" viewBox="0 0 1280 720" version="1.1" xmlns="http://www.w3.org/2000/svg" xmlns:xlink="http://www.w3.org/1999/xlink" xml:space="preserve" xmlns:serif="http://www.serif.com/" style="fill-rule:evenodd;clip-rule:evenodd;stroke-linejoin:round;stroke-miterlimit:2;">
    <g transform="matrix(3.48774,0,0,4.55696,-1189.32,-988.861)">
        <rect x="341" y="217" width="367" height="158" style="fill:rgb(46,46,46);"/>
    </g>
    <g id="dolphin" transform="matrix(2.90824,0,0,2.90824,421,360)">
        <g transform="matrix(1,0,0,1,-63.07,-34.385)">
            <clipPath id="_clip1">
                <rect x="0" y="0" width="126.14" height="68.77"/>
            </clipPath>
            <g clip-path="url(#_clip1)">
                <g transform="matrix(1,0,0,1,-897.15,-504.95)">
                    <path d="M986,529.79C973.58,523.07 960.48,519.03 946.2,518.89C937.12,518.8 928.82,520.69 921.45,526.12C917.73,527.3 913.99,526.4 910.27,526.21C908.572,526.226 907.055,525.114 906.56,523.49C906.87,520.96 908.56,519.49 910.49,518.06C923.83,508.29 938.83,506.66 954.62,509.11C956.599,509.358 958.557,509.749 960.48,510.28C965.08,511.7 969.48,511.66 973.87,509.07C978.63,506.29 984.08,506.32 989.44,506.74C990.98,506.86 992.95,506.74 993.15,509.11C990.27,511.39 985.39,511.31 984.7,516.21C984.19,520.1 988.33,521.21 989.47,524.05C989.85,526.89 988,528.38 986,529.79Z" style="fill:rgb(64,203,254);fill-rule:nonzero;"/>
                </g>
                <g transform="matrix(1,0,0,1,-897.15,-504.95)">
                    <path d="M907.07,523.07C908.16,525.37 910.27,525.07 912.22,524.99C915.339,524.813 918.465,525.196 921.45,526.12C919.77,528.01 919.45,529.33 922.71,529.24C923.64,529.42 920.71,530.98 923.53,530.91C932.81,530.69 942.15,529.8 951.36,531.64C965.113,534.443 977.848,540.932 988.2,550.41C989.2,551.34 990.7,552.25 989.87,554.11C978.66,547.31 966.79,542.22 953.87,539.75C951.4,539.27 950.87,539.59 951.78,541.91C951.7,546.16 955.65,547.14 957.92,549.48C959.03,550.62 961.54,550.58 961.03,553.11C950.12,553.11 940.68,550.11 935.03,539.86C933.8,537.64 932.03,537.72 930.03,537.73C920.546,537.719 911.18,539.845 902.63,543.95C899.91,545.25 896.79,546.14 897.31,541.02C898.76,537.88 901.78,535.61 902.31,531.96C902.042,530.913 902.36,529.798 903.14,529.05C904.46,527.1 904,523.91 907.07,523.07Z" style="fill:rgb(50,183,254);fill-rule:nonzero;"/>
                </g>
                <g transform="matrix(1,0,0,1,-897.15,-504.95)">
                    <path d="M907.07,523.07L903.07,529.07C904.25,520.25 910.51,515.59 917.66,512.07C932.48,504.83 947.94,505.39 963.46,509.37C966.292,510.263 969.375,509.899 971.92,508.37C978.42,504.67 985.51,504.27 992.74,505.71C993.74,505.92 995.23,505.71 995.19,507.49C995.19,508.86 994.19,509.03 993.19,509.1C985.68,506.63 978.51,507.87 971.64,511.35C969.366,512.666 966.659,513.026 964.12,512.35C949,508.6 934,507.6 919.33,514.15C914.68,516.23 910,518.53 907.07,523.07Z" style="fill:rgb(5,91,173);fill-rule:nonzero;"/>
                </g>
                <g transform="matrix(1,0,0,1,-897.15,-504.95)">
                    <path d="M986,529.79C985.92,527.36 989.08,526.61 988.93,524.15C994.12,525.23 996.84,529.58 1000.15,532.96C1008.69,541.69 1014.08,552.52 1019.37,563.36C1019.12,565.29 1021.72,566.93 1019.95,569.02C1013.57,558.5 1006.73,548.35 997.71,539.82C994.023,536.232 990.112,532.882 986,529.79Z" style="fill:rgb(49,179,253);fill-rule:nonzero;"/>
                </g>
                <g transform="matrix(1,0,0,1,-897.15,-504.95)">
                    <path d="M989.87,554.11C978.164,541.429 962.126,533.577 944.93,532.11C937.2,531.34 929.32,532.11 921.51,532.11C920.39,532.11 918.51,533.66 918.32,531.46C918.14,529.62 920.24,530.21 921.42,529.87C921.873,529.699 922.308,529.485 922.72,529.23C941.62,527.46 959.72,529.53 976.28,539.85C981.634,543.18 986.514,547.217 990.79,551.85C991.55,552.68 992.44,553.63 991.5,554.85C991.41,554.94 990.43,554.36 989.87,554.11Z" style="fill:rgb(5,92,174);fill-rule:nonzero;"/>
                </g>
                <g transform="matrix(1,0,0,1,-897.15,-504.95)">
                    <path d="M1018.91,563C1014.29,555.38 1010.6,547.21 1005.09,540.12C1000.5,534.045 995.058,528.657 988.94,524.12C986.78,521.87 983.51,520.22 984.71,516.18C985.45,518.78 987.78,519.92 989.65,521.42C1003.12,532.25 1012.65,545.91 1019,561.9C1019.26,562.17 1019.33,562.42 1019.22,562.65C1019.11,562.88 1019,563 1018.91,563Z" style="fill:rgb(12,99,179);fill-rule:nonzero;"/>
                </g>
                <g transform="matrix(1,0,0,1,-897.15,-504.95)">
                    <path d="M961,553.11C958.31,550.95 955.11,549.41 953,546.61C951.94,545.23 950.14,544 951.8,541.92C953.8,545.92 957.66,547.6 961.15,549.79C963.66,551.41 963.62,551.58 961,553.11Z" style="fill:rgb(14,99,178);fill-rule:nonzero;"/>
                </g>
                <g transform="matrix(1,0,0,1,-897.15,-504.95)">
                    <path d="M1018.91,563L1019,561.9C1021.13,565.38 1022.12,569.24 1023.29,573.69C1020.98,572.34 1020.63,570.56 1019.96,568.99L1018.91,563Z" style="fill:rgb(48,135,213);fill-rule:nonzero;"/>
                </g>
                <g transform="matrix(1,0,0,1,-897.15,-504.95)">
                    <path d="M902.22,532C903.05,536.4 899.66,538.47 897.22,541.06C897,537 900.64,535 902.22,532Z" style="fill:rgb(32,116,190);fill-rule:nonzero;"/>
                </g>
            </g>
        </g>
    </g>
    <g id="kirby" transform="matrix(2.10881,0,0,2.10881,816.125,360)">
        <g transform="matrix(1,0,0,1,-52.98,-47.42)">
            <clipPath id="_clip2">
                <rect x="0" y="0" width="105.96" height="94.84"/>
            </clipPath>
            <g clip-path="url(#_clip2)">
                <g transform="matrix(1,0,0,1,-932.29,-496.08)">
                    <path d="M1009.52,590.69C1005.43,590.888 1001.33,590.701 997.28,590.13C992.11,589.24 987.82,587.39 985.99,582.01C985.87,581.63 985.76,581.31 985.35,581.25C984.64,581.15 984.67,581.74 984.51,582.19C982.72,587.19 978.67,589.29 973.8,590.04C965.308,591.175 956.702,591.175 948.21,590.04C941.72,589.31 935.85,582.93 939.55,574.84C941.554,570.61 944.382,566.822 947.87,563.7C948.74,562.89 950.12,562.21 949.26,560.7C948.19,559.11 948.65,556.7 945.39,556.45C935.93,556.79 929.56,546.45 933.45,537.19C935.438,532.123 939.028,527.842 943.67,525C945.113,524.117 946.213,522.77 946.79,521.18C951.33,510.71 959.22,503.61 969.69,499.3C978.169,495.624 987.69,495.102 996.52,497.83C1009.22,501.78 1018.9,509.41 1024,522.04C1024.55,523.263 1025.51,524.261 1026.7,524.87C1031.9,528.063 1035.75,533.042 1037.55,538.87C1040.46,547.73 1033.92,556.87 1025.32,556.53C1022.6,557.68 1023.23,557.92 1021.32,560.63C1020.17,561.87 1021.59,562.84 1022.49,563.63C1026.27,566.826 1029.24,570.86 1031.18,575.41C1034.47,583.41 1028.55,589.41 1022.47,590.07C1020.75,590.26 1019.05,590.62 1017.32,590.69C1014.74,590.77 1012.13,590.69 1009.52,590.69ZM985.15,499.17C983.277,499.238 981.411,499.448 979.57,499.8C965.31,502.05 955.36,509.93 949.33,522.8C948.482,524.829 947.015,526.541 945.14,527.69C940.474,530.41 937.081,534.883 935.72,540.11C934.709,543.494 935.42,547.167 937.62,549.93C939.62,552.54 944.24,554.71 946.02,553.33C948.27,551.59 948.77,552.91 949.4,554.47C955.08,568.53 971.81,580.01 990.03,577.47C1000.36,576.27 1009.78,570.953 1016.15,562.73C1018.19,560.226 1019.87,557.453 1021.15,554.49C1021.78,552.99 1022.28,551.38 1024.49,553.32C1025.49,554.23 1027.32,553.58 1028.74,552.97C1033.74,550.9 1036.4,545.32 1034.86,540.13C1033.5,534.905 1030.12,530.428 1025.47,527.69C1023.59,526.553 1022.11,524.852 1021.25,522.83C1014.1,507.59 1001.76,500.08 985.15,499.17ZM961.42,587.7C965.58,588.36 969.61,587.46 973.65,587C976.667,586.729 979.402,585.101 981.08,582.58C982.08,581.08 981.57,579.85 979.92,579.69C970.12,578.75 962.08,574.37 955.37,567.34C954.6,566.53 953.78,565.77 953.03,564.94C952.28,564.11 951.95,564.38 951.17,564.87C946.76,567.63 944.17,571.76 942.17,576.37C939.48,582.66 943.67,586.51 948.53,586.98C952.83,587.4 957.11,588.45 961.42,587.7ZM1009.52,587.79C1013.32,588.42 1017.58,587.33 1021.89,587.02C1026.73,586.67 1030.13,582.52 1029.02,578.58C1027.98,574.614 1025.95,570.972 1023.14,567.99C1018.9,563.62 1018.84,563.65 1014.69,567.79L1014.43,568.06C1008.18,574.663 999.749,578.791 990.7,579.68C988.97,579.86 988.36,581.03 989.4,582.49C990.61,584.395 992.485,585.785 994.66,586.39C999.517,587.586 1004.52,588.058 1009.52,587.79Z" style="fill:rgb(244,39,142);fill-rule:nonzero;"/>
                </g>
                <g transform="matrix(1,0,0,1,-932.29,-496.08)">
                    <path d="M985.15,499.17C1001.76,500.08 1014.15,507.59 1021.21,522.89C1022.07,524.912 1023.55,526.613 1025.43,527.75C1030.08,530.488 1033.46,534.965 1034.82,540.19C1036.35,545.371 1033.69,550.932 1028.7,553C1027.28,553.61 1025.48,554.26 1024.45,553.35C1022.24,551.41 1021.74,553.02 1021.11,554.52C1019.83,557.483 1018.15,560.256 1016.11,562.76C1009.75,570.992 1000.33,576.32 990,577.53C971.78,580.05 955.05,568.53 949.37,554.53C948.74,552.97 948.24,551.65 945.99,553.39C944.21,554.77 939.59,552.6 937.59,549.99C935.39,547.227 934.679,543.554 935.69,540.17C937.051,534.943 940.444,530.47 945.11,527.75C946.985,526.601 948.452,524.889 949.3,522.86C955.3,509.95 965.3,502.07 979.54,499.86C981.39,499.486 983.265,499.256 985.15,499.17ZM971,526.41C971.13,528.96 970.75,531.82 971.84,534.55C972.52,536.25 973.48,537.78 975.45,537.77C977.42,537.76 978.59,536.4 979.14,534.63C980.925,528.974 981.105,522.932 979.66,517.18C979.03,514.62 977.46,513.34 975.66,513.41C973.37,513.49 972.6,515.27 971.93,517C970.78,519.94 971,523.06 971,526.41ZM999.47,525.86L999.47,521.05C999.432,519.068 998.885,517.129 997.88,515.42C996.29,512.66 993.39,512.69 991.72,515.42C991.31,516.033 991.003,516.708 990.81,517.42C989.569,522.957 989.741,528.717 991.31,534.17C992,536.54 993.81,538.1 995.41,537.78C997.41,537.38 998.3,535.78 998.94,533.92C999.8,531.26 999.33,528.55 999.44,525.86L999.47,525.86ZM961.71,533.44C960.494,533.336 959.271,533.521 958.14,533.98C956.64,534.79 955.39,535.63 955.44,537.58C955.411,539.216 956.355,540.722 957.84,541.41C960.231,542.849 963.263,542.727 965.53,541.1C966.758,540.438 967.527,539.15 967.527,537.755C967.527,536.806 967.171,535.89 966.53,535.19C965.283,533.872 963.481,533.222 961.68,533.44L961.71,533.44ZM1015.15,537.44C1015.2,536.516 1014.8,535.624 1014.08,535.04C1011.76,532.82 1006.46,532.83 1004.2,535.04C1003.54,535.774 1003.17,536.728 1003.17,537.716C1003.17,538.942 1003.74,540.102 1004.7,540.86C1007.32,542.888 1011.02,542.888 1013.64,540.86C1014.66,540.025 1015.21,538.744 1015.12,537.43L1015.15,537.44ZM985.15,543.92C986.756,543.945 988.336,543.507 989.7,542.66C990.16,542.41 990.51,541.94 990.29,541.46C990.07,540.98 989.55,540.93 989.05,541.25C986.753,542.837 983.697,542.837 981.4,541.25C980.93,540.95 980.4,541.05 980.27,541.62C980.244,541.973 980.394,542.318 980.67,542.54C981.981,543.442 983.538,543.92 985.13,543.91L985.15,543.92Z" style="fill:rgb(254,203,230);fill-rule:nonzero;"/>
                </g>
                <g transform="matrix(1,0,0,1,-932.29,-496.08)">
                    <path d="M961.42,587.7C957.11,588.45 952.83,587.4 948.54,586.98C943.68,586.51 939.54,582.66 942.18,576.37C944.18,571.76 946.76,567.63 951.18,564.87C951.96,564.38 952.41,564.24 953.04,564.94C953.67,565.64 954.61,566.53 955.38,567.34C962.09,574.34 970.13,578.75 979.93,579.69C981.58,579.85 982.09,581.08 981.09,582.58C979.412,585.101 976.677,586.729 973.66,587C969.61,587.46 965.58,588.36 961.42,587.7Z" style="fill:rgb(254,121,154);fill-rule:nonzero;"/>
                </g>
                <g transform="matrix(1,0,0,1,-932.29,-496.08)">
                    <path d="M1009.52,587.79C1004.52,588.058 999.517,587.586 994.66,586.39C992.485,585.785 990.61,584.395 989.4,582.49C988.4,581.03 988.97,579.86 990.7,579.68C999.749,578.791 1008.18,574.663 1014.43,568.06L1014.69,567.79C1018.84,563.65 1018.9,563.62 1023.14,567.99C1025.95,570.972 1027.98,574.614 1029.02,578.58C1030.13,582.52 1026.73,586.67 1021.89,587.02C1017.58,587.33 1013.32,588.42 1009.52,587.79Z" style="fill:rgb(254,121,154);fill-rule:nonzero;"/>
                </g>
                <g transform="matrix(1,0,0,1,-932.29,-496.08)">
                    <path d="M971,526.41C971.06,523.06 970.81,519.94 972,517C972.67,515.27 973.44,513.49 975.73,513.41C977.5,513.34 979.07,514.62 979.73,517.18C981.175,522.932 980.995,528.974 979.21,534.63C978.66,536.4 977.43,537.76 975.52,537.77C973.61,537.78 972.59,536.25 971.91,534.55C970.72,531.82 971.1,529 971,526.41ZM978.24,519.73C978.31,517.04 977.37,515.43 975.74,515.45C974.11,515.47 973.3,517.03 973.35,519.8C973.35,522.2 974.35,523.8 975.8,523.8C977.25,523.8 978.15,522.14 978.21,519.73L978.24,519.73ZM977.96,531.23C978.41,529.99 978.21,529.54 976.88,530.23C975.982,530.658 974.928,530.613 974.07,530.11C973.43,529.76 972.76,529.8 972.89,530.69C973.072,531.885 973.388,533.055 973.83,534.18C974.063,534.898 974.684,535.426 975.43,535.54C976.43,535.62 976.81,534.78 977.25,534.02C977.679,533.151 977.912,532.199 977.93,531.23L977.96,531.23Z" style="fill:rgb(244,41,143);fill-rule:nonzero;"/>
                </g>
                <g transform="matrix(1,0,0,1,-932.29,-496.08)">
                    <path d="M999.44,525.86C999.33,528.55 999.8,531.26 998.9,533.93C998.26,535.81 997.41,537.39 995.37,537.79C993.77,538.11 991.96,536.55 991.27,534.18C989.701,528.727 989.529,522.967 990.77,517.43C990.963,516.718 991.27,516.043 991.68,515.43C993.35,512.71 996.25,512.68 997.84,515.43C998.845,517.139 999.392,519.078 999.43,521.06C999.46,522.66 999.44,524.26 999.44,525.86ZM997.25,519.67C997.225,518.964 997.138,518.261 996.99,517.57C996.66,516.5 996.21,515.42 994.78,515.45C993.35,515.48 992.85,516.32 992.62,517.56C992.323,518.877 992.323,520.243 992.62,521.56C992.92,522.72 993.38,523.72 994.75,523.72C996.12,523.72 996.63,522.65 997,521.58C997.15,520.954 997.234,520.314 997.25,519.67ZM994.17,530.46C991.97,529.24 992.46,530.46 992.61,531.63C992.734,532.597 993.036,533.533 993.5,534.39C993.85,535.04 994.34,535.64 995.19,535.54C996.38,535.4 998.05,532.4 997.64,530.63C997.23,528.86 996.15,530.63 995.38,530.47C994.978,530.422 994.572,530.418 994.17,530.46Z" style="fill:rgb(244,41,143);fill-rule:nonzero;"/>
                </g>
                <g transform="matrix(1,0,0,1,-932.29,-496.08)">
                    <path d="M961.68,533.44C963.455,533.248 965.221,533.896 966.45,535.19C967.091,535.89 967.447,536.806 967.447,537.755C967.447,539.15 966.678,540.438 965.45,541.1C963.183,542.727 960.151,542.849 957.76,541.41C956.275,540.722 955.331,539.216 955.36,537.58C955.36,535.58 956.56,534.79 958.06,533.98C959.206,533.514 960.448,533.328 961.68,533.44Z" style="fill:rgb(254,146,195);fill-rule:nonzero;"/>
                </g>
                <g transform="matrix(1,0,0,1,-932.29,-496.08)">
                    <path d="M1015.12,537.43C1015.21,538.753 1014.64,540.039 1013.61,540.87C1010.99,542.898 1007.29,542.898 1004.67,540.87C1003.71,540.112 1003.14,538.952 1003.14,537.726C1003.14,536.738 1003.51,535.784 1004.17,535.05C1006.43,532.8 1011.73,532.79 1014.05,535.05C1014.76,535.63 1015.16,536.513 1015.12,537.43Z" style="fill:rgb(254,146,195);fill-rule:nonzero;"/>
                </g>
                <g transform="matrix(1,0,0,1,-932.29,-496.08)">
                    <path d="M985.13,543.91C983.525,543.907 981.96,543.407 980.65,542.48C980.374,542.258 980.224,541.913 980.25,541.56C980.39,540.99 980.91,540.89 981.38,541.19C983.677,542.777 986.733,542.777 989.03,541.19C989.53,540.87 990.03,540.91 990.27,541.4C990.51,541.89 990.14,542.35 989.68,542.6C988.321,543.465 986.741,543.92 985.13,543.91Z" style="fill:rgb(245,53,149);fill-rule:nonzero;"/>
                </g>
                <g transform="matrix(1,0,0,1,-932.29,-496.08)">
                    <path d="M978.21,519.73C978.15,522.14 977.21,523.73 975.77,523.73C974.33,523.73 973.36,522.17 973.32,519.73C973.27,516.96 974.13,515.4 975.71,515.38C977.29,515.36 978.28,517 978.21,519.73Z" style="fill:rgb(246,247,248);fill-rule:nonzero;"/>
                </g>
                <g transform="matrix(1,0,0,1,-932.29,-496.08)">
                    <path d="M977.93,531.23C977.899,532.194 977.657,533.14 977.22,534C976.78,534.76 976.42,535.6 975.4,535.52C974.654,535.406 974.033,534.878 973.8,534.16C973.358,533.035 973.042,531.865 972.86,530.67C972.73,529.78 973.4,529.74 974.04,530.09C974.898,530.593 975.952,530.638 976.85,530.21C978.18,529.54 978.38,530 977.93,531.23Z" style="fill:rgb(150,124,235);fill-rule:nonzero;"/>
                </g>
                <g transform="matrix(1,0,0,1,-932.29,-496.08)">
                    <path d="M997.25,519.67C997.245,520.319 997.172,520.966 997.03,521.6C996.66,522.67 996.12,523.73 994.78,523.74C993.44,523.75 992.95,522.74 992.65,521.58C992.353,520.263 992.353,518.897 992.65,517.58C992.88,516.34 993.46,515.5 994.81,515.47C996.16,515.44 996.69,516.47 997.02,517.59C997.156,518.275 997.233,518.971 997.25,519.67Z" style="fill:rgb(246,247,248);fill-rule:nonzero;"/>
                </g>
                <g transform="matrix(1,0,0,1,-932.29,-496.08)">
                    <path d="M994.17,530.46C994.572,530.415 994.978,530.415 995.38,530.46C996.15,530.62 997.24,528.92 997.64,530.62C998.04,532.32 996.38,535.39 995.19,535.53C994.34,535.63 993.85,535.03 993.5,534.38C993.036,533.523 992.734,532.587 992.61,531.62C992.46,530.46 992,529.24 994.17,530.46Z" style="fill:rgb(150,124,235);fill-rule:nonzero;"/>
                </g>
            </g>
        </g>
    </g>
</svg>
