<?xml version="1.0" encoding="UTF-8" standalone="no"?>
<!DOCTYPE svg PUBLIC "-//W3C//DTD SVG 1.1//EN" "http://www.w3.org/Graphics/SVG/1.1/DTD/svg11.dtd">
<svg width="100%" height="100%" viewBox="0 0 1920 1080" version="1.1" xmlns="http://www.w3.org/2000/svg" xmlns:xlink="http://www.w3.org/1999/xlink" xml:space="preserve" xmlns:serif="http://www.serif.com/" style="fill-rule:evenodd;clip-rule:evenodd;stroke-linejoin:round;stroke-miterlimit:2;">
    <g transform="matrix(4.49649,0,0,6.79248,-1636.73,-2126.05)">
        <rect x="364" y="313" width="427" height="159" style="fill:rgb(130,210,251);"/>
    </g>
    <g id="环保健康" transform="matrix(1,0,0,1,960,540)">
        <g transform="matrix(1.86203,0,0,1.86203,-184.354,-339.651)">
            <path d="M60.963,163.333C58.463,163.333 56.13,162 54.963,159.5C53.297,156.167 54.797,152.167 58.13,150.667C70.463,144.667 83.63,141.667 97.463,141.667C106.963,141.667 116.297,143.167 125.297,146C128.797,147.167 130.797,150.833 129.63,154.333C128.463,157.833 124.797,159.833 121.297,158.667C113.63,156.167 105.63,155 97.463,155C85.63,155 74.297,157.5 63.797,162.667C62.963,163.167 61.963,163.333 60.963,163.333Z" style="fill:rgb(0,147,127);fill-rule:nonzero;"/>
            <path d="M147.797,171.667C146.463,171.667 144.963,171.167 143.797,170.333C141.63,168.667 139.297,167.167 136.797,165.667C133.63,163.833 132.63,159.667 134.463,156.5C136.463,153.333 140.463,152.333 143.63,154.167C146.463,155.833 149.13,157.667 151.797,159.667C154.797,161.833 155.297,166 153.13,169C151.797,170.667 149.797,171.667 147.797,171.667Z" style="fill:rgb(255,183,0);fill-rule:nonzero;"/>
            <path d="M98.167,154.5C94.5,154.5 91.5,151.5 91.5,147.833L91.5,143.5C91.5,118.333 107.667,96.167 131.667,88.5C135.167,87.333 139,89.333 140,92.833C141.167,96.333 139.167,100.167 135.667,101.167C117.167,107 104.667,124 104.667,143.333L104.667,147.667C104.833,151.5 101.833,154.5 98.167,154.5Z" style="fill:rgb(0,147,127);fill-rule:nonzero;"/>
            <path d="M97.333,154.167C97.167,154.167 97.167,154.167 97.333,154.167C93.5,154.167 90.667,151.167 90.667,147.333L90.833,134.333C91.167,109.667 75.833,87.5 52.833,79C49.333,77.667 47.667,73.833 48.833,70.5C50.167,67 54,65.333 57.333,66.5C85.833,77 104.5,104.333 104.167,134.5L104,147.5C103.833,151.167 100.833,154.167 97.333,154.167Z" style="fill:rgb(0,147,127);fill-rule:nonzero;"/>
            <path d="M66.667,106.667C34,106.667 24,77.667 21.167,53.333C20.833,49.833 23.167,46.667 26.5,46C55.167,40.167 74.667,42.667 86.167,53.667C95.333,62.333 98.667,75.667 96.167,93.5C95.667,97.167 92.333,99.667 88.667,99.167C85,98.667 82.5,95.333 83,91.667C84.833,78.333 82.833,68.833 77,63.5C69.833,56.667 55.5,54.833 35.333,58.167C40.5,89.833 55.833,93.5 67.333,93.333C71,93.167 74,96.167 74.167,99.833C74.333,103.5 71.333,106.5 67.667,106.667L66.667,106.667Z" style="fill:rgb(0,147,127);fill-rule:nonzero;"/>
            <path d="M137.833,120C135.333,120 133,119.833 130.667,119.333C127,118.667 124.667,115.333 125.167,111.667C125.833,108 129.333,105.667 132.833,106.167C141.667,107.667 153.833,106.667 162,83.833C146.833,79 135.667,78.833 129.333,83.167C124.333,86.667 121.667,93.667 121.5,104.167C121.5,107.833 118.5,110.667 114.833,110.667L114.667,110.667C111,110.667 108,107.5 108.167,103.833C108.5,88.833 113,78.167 121.833,72.167C133,64.5 149.5,65 172.5,73.5C175.833,74.667 177.5,78.167 176.667,81.5C168.167,112.167 152,119.833 137.833,120Z" style="fill:rgb(0,147,127);fill-rule:nonzero;"/>
        </g>
        <g transform="matrix(1.35021,0,-0.491436,1.35021,-423.936,340.582)">
            <text x="0px" y="0px" style="font-family:'SourceHanSansSC-Bold', 'Source Han Sans SC', sans-serif;font-weight:700;font-size:277.846px;fill:white;fill-opacity:0.17;">环保</text>
        </g>
    </g>
</svg>
