<?xml version="1.0" encoding="UTF-8" standalone="no"?>
<!DOCTYPE svg PUBLIC "-//W3C//DTD SVG 1.1//EN" "http://www.w3.org/Graphics/SVG/1.1/DTD/svg11.dtd">
<svg width="100%" height="100%" viewBox="0 0 1280 720" version="1.1" xmlns="http://www.w3.org/2000/svg" xmlns:xlink="http://www.w3.org/1999/xlink" xml:space="preserve" xmlns:serif="http://www.serif.com/" style="fill-rule:evenodd;clip-rule:evenodd;stroke-linejoin:round;stroke-miterlimit:2;">
    <g transform="matrix(2.4015,0,0,2.89157,-970.206,-569.639)">
        <rect x="404" y="197" width="533" height="249" style="fill:rgb(106,205,156);"/>
    </g>
    <g id="python" transform="matrix(1,0,0,1,489.99,360)">
        <g transform="matrix(1,0,0,1,-100,-100)">
            <path d="M82.167,16.667C69,16.667 58.333,27.333 58.333,40.5L58.333,54.5L94.083,54.5C97.333,54.5 100,59.25 100,62.5L40.5,62.5C27.333,62.5 16.667,73.167 16.667,86.333L16.667,117.842C16.667,131.008 27.333,141.675 40.5,141.675L50.333,141.675L50.333,119.342C50.333,106.175 60.917,95.508 74.083,95.508L117.833,95.508C131,95.508 141.667,84.917 141.667,71.75L141.667,40.5C141.667,27.333 131,16.667 117.833,16.667L82.167,16.667ZM76.167,30.083C79.5,30.083 82.167,31.083 82.167,36C82.167,40.917 79.5,43.425 76.167,43.425C72.917,43.425 70.25,40.925 70.25,36.008C70.25,31.092 72.917,30.083 76.167,30.083Z" style="fill:rgb(60,120,170);fill-rule:nonzero;"/>
            <path d="M149.658,58.333L149.658,80.667C149.658,80.692 149.658,80.717 149.658,80.742C149.658,93.771 138.937,104.492 125.908,104.492L82.167,104.492C82.139,104.492 82.111,104.492 82.083,104.492C69.054,104.492 58.333,115.213 58.333,128.242L58.333,159.492C58.333,172.566 69.092,183.325 82.167,183.325L117.833,183.325C130.905,183.325 141.662,172.571 141.667,159.5L141.667,145.5L105.908,145.5C102.658,145.5 100,140.75 100,137.5L159.5,137.5C172.575,137.5 183.333,126.741 183.333,113.667L183.333,82.167C183.333,69.092 172.575,58.333 159.5,58.333L149.658,58.333ZM69.333,95.942L69.3,95.975C69.4,95.958 69.508,95.967 69.617,95.942L69.333,95.942ZM123.833,156.575C127.083,156.575 129.75,159.075 129.75,163.992C129.75,167.237 127.079,169.908 123.833,169.908C120.5,169.908 117.833,168.908 117.833,163.992C117.833,159.075 120.5,156.575 123.833,156.575Z" style="fill:rgb(253,216,53);fill-rule:nonzero;"/>
        </g>
    </g>
    <g id="相册" transform="matrix(1,0,0,1,790.01,360)">
        <g transform="matrix(1,0,0,1,-100,-100)">
            <path d="M187.305,31.787C187.273,27.039 185.387,22.301 181.896,19.027C178.581,15.905 174.199,14.159 169.645,14.145L31.25,14.145C30.734,14.145 30.217,14.133 29.703,14.158C22.914,14.467 16.813,18.529 14.154,24.82C12.781,28.061 12.695,31.25 12.695,34.645L12.695,168.24C12.734,173.107 14.742,178.102 18.48,181.314C21.848,184.209 25.918,185.834 30.395,185.85L170.063,185.85C176.4,185.67 182.639,182.053 185.406,176.23C186.663,173.626 187.313,170.77 187.305,167.879L187.305,31.787ZM173.332,27.008C173.235,26.945 173.143,26.874 173.059,26.795C173.07,26.781 173.186,26.879 173.326,27.008L173.332,27.008ZM26.102,27.559C26.297,27.363 26.516,27.191 26.715,27.002C27.112,26.741 27.524,26.503 27.949,26.291C28.44,26.124 28.94,25.986 29.447,25.879C30.838,25.781 32.256,25.848 33.639,25.848L169.619,25.848C169.93,25.848 170.24,25.859 170.549,25.879C171.058,25.985 171.559,26.122 172.051,26.291C172.454,26.49 172.845,26.713 173.223,26.957C173.295,27.004 173.365,27.055 173.438,27.104C173.65,27.299 173.881,27.537 173.902,27.559C174.098,27.754 174.271,27.973 174.459,28.174C174.721,28.57 174.959,28.982 175.172,29.406C175.34,29.897 175.476,30.397 175.582,30.904C175.678,32.271 175.615,33.668 175.615,35.029L175.615,123.08L169.756,116.867C161.613,108.227 153.469,99.583 145.324,90.938L139.73,84.998C137.582,82.711 133.633,82.799 131.463,84.998L126.701,89.826L115.27,101.416L101.441,115.43L89.488,127.549C88.758,128.289 88.018,129.021 87.279,129.756L80.928,124.57L63.479,110.312L59.469,107.031C58.297,106.066 56.943,105.246 55.336,105.318C53.797,105.375 52.329,105.983 51.201,107.031L39.184,117.689L24.389,130.809L24.389,31.832C24.389,31.523 24.4,31.215 24.422,30.908C24.527,30.399 24.665,29.896 24.834,29.404C25.033,29.001 25.256,28.61 25.5,28.232C25.547,28.16 25.598,28.09 25.646,28.02C25.85,27.811 26.08,27.582 26.102,27.559ZM25.551,28.125C25.488,28.223 25.416,28.315 25.336,28.4C25.324,28.383 25.422,28.268 25.551,28.125ZM26.67,172.992C26.767,173.055 26.859,173.126 26.943,173.205C26.926,173.221 26.811,173.123 26.67,172.994L26.67,172.992ZM140.553,174.154L30.396,174.154C30.086,174.154 29.775,174.141 29.467,174.121C28.958,174.015 28.456,173.878 27.965,173.709C27.562,173.51 27.17,173.287 26.793,173.043C26.721,172.996 26.65,172.945 26.58,172.896C26.365,172.701 26.135,172.463 26.113,172.441C25.918,172.246 25.746,172.027 25.557,171.828C25.295,171.431 25.058,171.019 24.846,170.594C24.676,170.104 24.539,169.603 24.434,169.096C24.338,167.729 24.4,166.332 24.4,164.973L24.4,146.398L36.014,136.102L55.078,119.189L55.508,118.811L62.148,124.242L79.598,138.5L83.605,141.797C84.777,142.764 86.131,143.582 87.738,143.51C89.283,143.441 90.764,142.924 91.873,141.797L96.633,136.971L108.064,125.381L121.895,111.359L133.848,99.24C134.398,98.682 134.955,98.129 135.512,97.574L146.904,109.668C155.049,118.311 163.192,126.954 171.334,135.598L175.607,140.133L175.607,168.17C175.607,168.479 175.596,168.787 175.574,169.094C175.469,169.603 175.332,170.106 175.162,170.598C174.963,171.001 174.741,171.392 174.496,171.77C174.449,171.842 174.4,171.912 174.35,171.982C174.154,172.197 173.916,172.428 173.895,172.449C173.699,172.645 173.482,172.816 173.281,173.006C172.885,173.268 172.472,173.505 172.047,173.717C171.553,173.887 171.049,174.025 170.537,174.131C170.279,174.148 170.021,174.158 169.756,174.162L140.553,174.162L140.553,174.154ZM174.445,171.875C174.508,171.777 174.58,171.686 174.66,171.602C174.672,171.619 174.574,171.734 174.445,171.875Z" style="fill:white;fill-rule:nonzero;"/>
            <path d="M55.908,78.125C59.572,79.842 63.689,80.346 67.658,79.564C75.771,78.041 81.568,70.447 81.863,62.398C81.873,62.25 81.879,62.1 81.877,61.945L81.877,61.572C81.641,53.955 76.789,47.51 69.672,44.885C63.012,42.43 54.766,44.666 50.248,50.131C47.698,53.164 46.163,56.922 45.859,60.873C45.555,64.371 46.529,68.127 48.318,71.131C50.064,74.07 52.77,76.686 55.908,78.125ZM59.961,56.891L60.025,56.846C60.457,56.559 60.906,56.302 61.371,56.074C61.897,55.892 62.435,55.745 62.98,55.633C63.551,55.596 64.124,55.596 64.695,55.633C65.243,55.746 65.782,55.894 66.311,56.076C66.736,56.284 67.148,56.517 67.545,56.775L67.68,56.867C67.896,57.062 68.119,57.248 68.324,57.453C68.529,57.658 68.703,57.857 68.889,58.062L68.936,58.127C69.224,58.559 69.485,59.008 69.717,59.473C69.898,60.004 70.047,60.546 70.16,61.096C70.18,61.377 70.191,61.658 70.193,61.939C70.195,62.221 70.18,62.504 70.16,62.785C70.047,63.337 69.898,63.881 69.715,64.414C69.505,64.839 69.272,65.251 69.016,65.648C68.986,65.693 68.955,65.738 68.924,65.781C68.729,66 68.533,66.221 68.338,66.428C68.143,66.635 67.934,66.805 67.729,66.992L67.664,67.037C67.233,67.324 66.783,67.581 66.318,67.809C65.792,67.991 65.254,68.138 64.709,68.25C64.138,68.287 63.565,68.287 62.994,68.25C62.447,68.137 61.907,67.989 61.379,67.807C60.954,67.599 60.541,67.365 60.145,67.107L60.01,67.016C59.793,66.82 59.57,66.635 59.365,66.43C59.16,66.225 58.984,66.025 58.789,65.82L58.742,65.756C58.457,65.324 58.2,64.874 57.971,64.41C57.79,63.883 57.642,63.345 57.529,62.799C57.494,62.228 57.494,61.656 57.529,61.086C57.643,60.538 57.791,59.998 57.973,59.469C58.182,59.044 58.415,58.632 58.672,58.234L58.764,58.1C58.959,57.883 59.154,57.662 59.35,57.455C59.545,57.248 59.766,57.076 59.961,56.891Z" style="fill:white;fill-rule:nonzero;"/>
        </g>
    </g>
</svg>
