<?xml version="1.0" encoding="UTF-8" standalone="no"?>
<!DOCTYPE svg PUBLIC "-//W3C//DTD SVG 1.1//EN" "http://www.w3.org/Graphics/SVG/1.1/DTD/svg11.dtd">
<svg width="100%" height="100%" viewBox="0 0 1280 720" version="1.1" xmlns="http://www.w3.org/2000/svg" xmlns:xlink="http://www.w3.org/1999/xlink" xml:space="preserve" xmlns:serif="http://www.serif.com/" style="fill-rule:evenodd;clip-rule:evenodd;stroke-linejoin:round;stroke-miterlimit:2;">
    <g transform="matrix(1.71812,0,0,1.91489,-403.758,-137.872)">
        <rect x="235" y="72" width="745" height="376" style="fill:rgb(255,0,160);"/>
    </g>
    <g id="书" transform="matrix(1,0,0,1,640,360)">
        <g transform="matrix(1,0,0,1,-100,-100)">
            <path d="M105.833,163.75C104.167,163.75 102.083,163.333 100.417,162.5C97.083,160.417 94.583,157.083 94.583,152.917L94.583,75.417C94.583,68.333 97.917,61.667 103.333,57.083C138.333,29.167 171.667,34.583 184.583,38.333C190,40 193.75,45 193.75,50.417L193.75,142.083C193.75,145.417 192.083,148.75 189.583,150.833C186.667,152.917 183.333,153.75 180,152.917C147.917,144.167 123.333,155.417 111.667,162.5C110,163.333 107.917,163.75 105.833,163.75ZM162.083,47.917C148.333,47.917 130.417,51.667 111.667,67.083C109.167,69.167 107.5,72.5 107.5,75.833L107.5,150C121.25,142.083 147.5,131.667 181.25,140L181.25,50.417C177.083,49.167 170.417,47.917 162.083,47.917Z" style="fill:white;fill-rule:nonzero;"/>
            <path d="M96.667,164.583C94.583,164.583 92.5,164.167 90.833,162.917C79.167,155.833 55,144.583 22.5,153.333C19.167,154.167 15.833,153.333 12.917,151.25C10.417,149.167 8.75,146.25 8.75,142.5L8.75,50.833C8.75,45 12.5,40 17.917,38.75C30.833,35 64.167,29.583 98.75,57.917C104.167,62.5 107.5,69.167 107.5,76.25L107.5,153.75C107.5,157.917 105.417,161.25 101.667,163.333C100.417,164.167 98.75,164.583 96.667,164.583ZM46.25,137.917C67.917,137.917 85,145 95,151.25L95,76.25C95,72.917 93.333,70 90.833,67.5C60.833,42.917 32.5,47.917 21.667,50.833L21.667,140.417C30.417,138.75 38.75,137.917 46.25,137.917Z" style="fill:white;fill-rule:nonzero;"/>
        </g>
    </g>
</svg>
