<?xml version="1.0" encoding="UTF-8" standalone="no"?>
<!DOCTYPE svg PUBLIC "-//W3C//DTD SVG 1.1//EN" "http://www.w3.org/Graphics/SVG/1.1/DTD/svg11.dtd">
<svg width="100%" height="100%" viewBox="0 0 1280 720" version="1.1" xmlns="http://www.w3.org/2000/svg" xmlns:xlink="http://www.w3.org/1999/xlink" xml:space="preserve" xmlns:serif="http://www.serif.com/" style="fill-rule:evenodd;clip-rule:evenodd;stroke-linejoin:round;stroke-miterlimit:2;">
    <g transform="matrix(3.95062,0,0,4.33735,-1248.4,-841.446)">
        <rect x="316" y="194" width="324" height="166" style="fill:rgb(35,40,45);"/>
    </g>
    <g id="wordpress" transform="matrix(1,0,0,1,492,360)">
        <g transform="matrix(1,0,0,1,-100,-100)">
            <clipPath id="_clip1">
                <rect x="0" y="0" width="200" height="200"/>
            </clipPath>
            <g clip-path="url(#_clip1)">
                <path d="M14.174,100C14.174,87.872 16.667,76.228 21.652,65.067L62.612,177.232C48.028,170.164 36.31,159.71 27.455,145.871C18.601,132.031 14.174,116.741 14.174,100ZM157.924,95.647C157.924,97.061 157.831,98.493 157.645,99.944C157.459,101.395 157.087,103.237 156.529,105.469C155.971,107.701 155.543,109.338 155.246,110.379C154.948,111.421 154.297,113.616 153.292,116.964C152.288,120.313 151.637,122.47 151.339,123.438L142.857,152.009L111.83,59.821C115.253,59.598 118.527,59.301 121.652,58.929C123.065,58.78 124.033,58.092 124.554,56.864C125.074,55.636 124.981,54.483 124.275,53.404C123.568,52.325 122.507,51.823 121.094,51.897L98.214,53.013C92.634,52.939 85.119,52.567 75.67,51.897C74.777,51.823 74.014,52.009 73.382,52.455C72.749,52.902 72.321,53.46 72.098,54.129C71.875,54.799 71.819,55.487 71.931,56.194C72.042,56.901 72.377,57.515 72.935,58.036C73.493,58.557 74.219,58.854 75.112,58.929L84.04,59.821L97.433,96.429L78.683,152.679L47.433,59.821C50.856,59.598 54.129,59.301 57.254,58.929C58.668,58.78 59.635,58.092 60.156,56.864C60.677,55.636 60.584,54.483 59.877,53.404C59.17,52.325 58.11,51.823 56.696,51.897L33.817,53.013C33.296,53.013 32.44,53.199 31.25,53.571C30.06,53.943 29.092,54.129 28.348,54.129C36.161,42.225 46.373,32.794 58.984,25.837C71.596,18.88 85.268,15.402 100,15.402C110.938,15.402 121.373,17.374 131.306,21.317C141.239,25.26 150.112,30.804 157.924,37.946L156.808,37.946C152.716,37.946 149.293,39.453 146.54,42.467C143.787,45.48 142.411,49.033 142.411,53.125C142.411,54.018 142.485,54.911 142.634,55.804C142.783,56.696 142.932,57.496 143.08,58.203C143.229,58.91 143.527,59.766 143.973,60.77C144.42,61.775 144.754,62.556 144.978,63.114C145.201,63.672 145.647,64.509 146.317,65.625C146.987,66.741 147.452,67.522 147.712,67.969C147.972,68.415 148.512,69.308 149.33,70.647C150.149,71.987 150.67,72.842 150.893,73.214C155.58,81.176 157.924,89.062 157.924,96.875L157.924,95.647ZM101.451,107.478L127.902,179.688C127.976,180.134 128.162,180.543 128.46,180.915C119.085,184.189 109.598,185.826 100,185.826C91.667,185.826 83.594,184.635 75.781,182.254L101.451,107.478ZM175.223,58.817C182.292,71.763 185.826,85.491 185.826,100C185.826,115.551 181.957,129.892 174.219,143.025C166.481,156.157 156.101,166.518 143.08,174.107L169.308,98.438C173.698,85.863 175.893,75.595 175.893,67.634C175.893,64.509 175.67,61.57 175.223,58.817L175.223,58.817ZM100,0C113.542,0 126.488,2.641 138.839,7.924C151.19,13.207 161.83,20.313 170.759,29.241C179.688,38.17 186.793,48.81 192.076,61.161C197.359,73.512 200,86.458 200,100C200,113.542 197.359,126.488 192.076,138.839C186.793,151.19 179.688,161.83 170.759,170.759C161.83,179.688 151.19,186.793 138.839,192.076C126.488,197.359 113.542,200 100,200C86.458,200 73.512,197.359 61.161,192.076C48.81,186.793 38.17,179.688 29.241,170.759C20.313,161.83 13.207,151.19 7.924,138.839C2.641,126.488 0,113.542 0,100C0,86.458 2.641,73.512 7.924,61.161C13.207,48.81 20.313,38.17 29.241,29.241C38.17,20.313 48.81,13.207 61.161,7.924C73.512,2.641 86.458,0 100,0ZM100,195.424C112.872,195.424 125.205,192.894 136.998,187.835C148.791,182.775 158.947,175.986 167.467,167.467C175.986,158.947 182.775,148.791 187.835,136.998C192.894,125.205 195.424,112.872 195.424,100C195.424,87.128 192.894,74.795 187.835,63.002C182.775,51.209 175.986,41.053 167.467,32.533C158.947,24.014 148.791,17.225 136.998,12.165C125.205,7.106 112.872,4.576 100,4.576C87.128,4.576 74.795,7.106 63.002,12.165C51.209,17.225 41.053,24.014 32.533,32.533C24.014,41.053 17.225,51.209 12.165,63.002C7.106,74.795 4.576,87.128 4.576,100C4.576,112.872 7.106,125.205 12.165,136.998C17.225,148.791 24.014,158.947 32.533,167.467C41.053,175.986 51.209,182.775 63.002,187.835C74.795,192.894 87.128,195.424 100,195.424Z" style="fill:rgb(215,218,222);fill-rule:nonzero;"/>
            </g>
        </g>
    </g>
    <g id="theme" transform="matrix(1,0,0,1,792,360)">
        <g transform="matrix(1,0,0,1,-100,-100)">
            <clipPath id="_clip2">
                <rect x="0" y="0" width="200" height="200"/>
            </clipPath>
            <g clip-path="url(#_clip2)">
                <path d="M196.119,62.713L148.979,15.573C146.479,13.074 143.085,11.668 139.55,11.668C136.015,11.668 132.622,13.074 130.122,15.573L124.205,21.49C121.706,23.989 118.313,25.396 114.779,25.397L85.249,25.397C81.714,25.398 78.32,23.991 75.822,21.49L69.905,15.573C67.406,13.074 64.012,11.668 60.477,11.668C56.942,11.668 53.548,13.074 51.049,15.573L3.905,62.713C1.406,65.213 -0,68.607 -0,72.142C-0,75.677 1.406,79.07 3.905,81.57L22.762,100.427C26.161,103.828 31.155,105.123 35.779,103.8C37.889,103.2 40.012,104.617 40.012,106.81L40.012,175C40.012,182.333 46.012,188.333 53.345,188.333L146.678,188.333C154.012,188.333 160.012,182.333 160.012,175L160.012,106.81C160.012,104.617 162.135,103.2 164.245,103.8C168.869,105.123 173.863,103.828 177.262,100.427L196.119,81.57C198.618,79.07 200.024,75.677 200.024,72.142C200.024,68.607 198.618,65.213 196.119,62.713L196.119,62.713Z" style="fill:rgb(215,218,222);fill-rule:nonzero;"/>
            </g>
        </g>
    </g>
</svg>
