<?xml version="1.0" encoding="UTF-8" standalone="no"?>
<!DOCTYPE svg PUBLIC "-//W3C//DTD SVG 1.1//EN" "http://www.w3.org/Graphics/SVG/1.1/DTD/svg11.dtd">
<svg width="100%" height="100%" viewBox="0 0 1280 720" version="1.1" xmlns="http://www.w3.org/2000/svg" xmlns:xlink="http://www.w3.org/1999/xlink" xml:space="preserve" xmlns:serif="http://www.serif.com/" style="fill-rule:evenodd;clip-rule:evenodd;stroke-linejoin:round;stroke-miterlimit:2;">
    <g transform="matrix(1.03476,0,0,1.03448,-44.4947,-17.5862)">
        <rect x="43" y="17" width="1237" height="696" style="fill:rgb(0,121,216);"/>
    </g>
    <g transform="matrix(1,0,0,1,415,260)">
        <g id="win">
            <g>
                <path d="M90.293,95.137L90.293,24.004L12.598,36.23L12.598,95.137L90.293,95.137ZM100,104.863L100,177.52L187.402,191.289L187.402,104.863L100,104.863ZM100,95.137L187.402,95.137L187.402,8.711L100,22.461L100,95.137ZM90.293,104.863L12.598,104.863L12.598,163.77L90.293,175.996L90.293,104.863Z" style="fill:white;fill-rule:nonzero;"/>
            </g>
        </g>
    </g>
    <g id="账户" transform="matrix(0.996377,0,0,1,696.25,278.75)">
        <g id="app" transform="matrix(1.00364,0,0,1,103.5,81.249)">
            <g id="账户1" serif:id="账户">
                <g id="app1" serif:id="app" transform="matrix(1,0,0,1,-100,-100)">
                    <path d="M171.516,110.431L107.571,110.431C105.362,110.431 103.574,112.222 103.574,114.428L103.574,178.373C103.574,180.581 105.362,182.37 107.571,182.37L171.516,182.37C173.722,182.37 175.513,180.581 175.513,178.373L175.513,114.428C175.513,112.222 173.722,110.431 171.516,110.431ZM167.518,174.376L111.568,174.376L111.568,118.426L167.518,118.426L167.518,174.376Z" style="fill:white;fill-rule:nonzero;"/>
                    <path d="M84.103,110.431L20.158,110.431C17.952,110.431 16.161,112.222 16.161,114.428L16.161,178.373C16.161,180.581 17.952,182.37 20.158,182.37L84.103,182.37C86.311,182.37 88.1,180.581 88.1,178.373L88.1,114.428C88.1,112.222 86.311,110.431 84.103,110.431ZM80.105,174.376L24.155,174.376L24.155,118.426L80.105,118.426L80.105,174.376Z" style="fill:white;fill-rule:nonzero;"/>
                    <path d="M84.103,22.578L20.158,22.578C17.952,22.578 16.161,24.367 16.161,26.576L16.161,90.518C16.161,92.727 17.952,94.516 20.158,94.516L84.103,94.516C86.311,94.516 88.1,92.727 88.1,90.518L88.1,26.576C88.1,24.367 86.311,22.578 84.103,22.578ZM80.105,86.521L24.155,86.521L24.155,30.573L80.105,30.573L80.105,86.521Z" style="fill:white;fill-rule:nonzero;"/>
                    <path d="M188.58,54.247L146.698,12.365C145.949,11.616 144.932,11.194 143.872,11.194C142.811,11.194 141.796,11.616 141.044,12.365L99.163,54.247C97.602,55.808 97.602,58.34 99.163,59.901L141.044,101.783C141.826,102.562 142.849,102.954 143.872,102.954C144.894,102.954 145.917,102.562 146.698,101.783L188.58,59.901C189.329,59.152 189.751,58.134 189.751,57.075C189.751,56.014 189.329,54.997 188.58,54.247ZM143.872,93.303L107.643,57.075L143.872,20.846L180.1,57.075L143.872,93.303Z" style="fill:white;fill-rule:nonzero;"/>
                </g>
                <g id="app2" serif:id="app">
                </g>
            </g>
        </g>
    </g>
</svg>
